<svg width="31" height="61" viewBox="0 0 31 61" fill="none" xmlns="http://www.w3.org/2000/svg">
<path d="M0 38.3772V7.75C0 3.46979 3.46979 0 7.75 0C12.0302 0 15.5 3.47951 15.5 7.75972C15.5 12.0399 18.9698 15.5194 23.25 15.5194C27.5302 15.5194 31 18.9989 31 23.2792C31 27.5594 27.5302 31.0389 23.25 31.0389H23.0442C18.8776 31.0389 15.5 34.4165 15.5 38.583V46.1272H23.5636C27.6706 46.1272 31 49.4566 31 53.5636C31 57.6706 27.6706 61 23.5636 61H23.25C18.9698 61 15.5 57.5302 15.5 53.25V46.1272H7.75C3.46979 46.1272 0 42.6574 0 38.3772Z" fill="#181717"/>
</svg>
